<svg xmlns="http://www.w3.org/2000/svg" width="1500" height="500" viewBox="0 0 1500 500"><rect width="1500" height="500" fill="#1B1C1A"/><path fill="#FFD60A" d="M40 460H104V452H48V396H40ZM1396 460H1460V396H1452V452H1396ZM40 104H48V48H104V40H40ZM1396 48H1452V104H1460V40H1396Z"/><path fill="#FFD60A" d="M510.27 270H989.73V100H510.27Z"/><path fill="#1B1C1A" d="M609.91 243.81H645.94L647.85 224.41H624.91L625.2 180L614.91 126.92H586.68L576.39 180L575.8 219.26H595.8L597.12 211.03L598.88 145.59H602.71L604.47 211.03ZM887.59 243.81H910.23L914.2 219.26H919.35L924.49 199.85H915.53L918.61 176.77L920.23 145.59H942.87L940.37 126.19H903.91ZM772.97 243.81H773.71Q790.18 243.81 797.42 237.12Q804.66 230.43 805.32 215.14Q805.47 212.57 805.47 210.51Q805.47 208.45 805.32 206.03Q805.03 197.72 801.87 192.9Q798.71 188.09 791.94 185.88V182.35Q798.49 180.15 801.61 175.41Q804.73 170.66 805.18 162.65Q805.32 160.74 805.32 158.83V154.86Q805.32 139.49 797.75 132.84Q790.18 126.19 773.71 126.19H772.97V145.59H773.71Q778.34 145.59 780.8 147.69Q783.27 149.78 783.27 153.68V162.06Q783.27 167.87 780.8 171.07Q778.34 174.27 773.71 174.27H772.97V193.68H773.71Q778.78 193.68 781.02 196.73Q783.27 199.78 783.27 207.06V214.85Q783.27 219.48 780.8 221.94Q778.34 224.41 773.71 224.41H772.97ZM848.33 243.81H849.07Q865.53 243.81 872.77 237.12Q880.02 230.43 880.68 215.14Q880.83 212.57 880.83 210.51Q880.83 208.45 880.68 206.03Q880.38 197.72 877.22 192.9Q874.06 188.09 867.3 185.88V182.35Q873.84 180.15 876.97 175.41Q880.09 170.66 880.53 162.65Q880.68 160.74 880.68 158.83V154.86Q880.68 139.49 873.11 132.84Q865.53 126.19 849.07 126.19H848.33V145.59H849.07Q853.7 145.59 856.16 147.69Q858.62 149.78 858.62 153.68V162.06Q858.62 167.87 856.16 171.07Q853.7 174.27 849.07 174.27H848.33V193.68H849.07Q854.14 193.68 856.38 196.73Q858.62 199.78 858.62 207.06V214.85Q858.62 219.48 856.16 221.94Q853.7 224.41 849.07 224.41H848.33ZM554.77 243.81H590.8L594.03 224.41H571.83L569.62 180L565.8 126.19H543.6ZM743.57 243.81H765.62V126.19H743.57ZM818.92 243.81H840.98V126.19H818.92ZM702.69 245.21Q717.1 244.48 723.39 237.57Q729.67 230.65 729.89 215.73Q730.26 193.53 730.26 170.92Q730.26 148.31 729.89 126.19H707.84Q708.13 140.96 708.17 156.99Q708.21 173.02 708.09 189.04Q707.98 205.07 707.84 219.85Q707.84 222.57 706.55 224.37Q705.26 226.17 702.69 226.91ZM667.99 215.73Q668.21 230.65 674.53 237.57Q680.86 244.48 695.34 245.21V226.91Q692.77 226.17 691.41 224.37Q690.05 222.57 690.05 219.85Q689.9 205.07 689.79 189.04Q689.68 173.02 689.72 156.99Q689.75 140.96 690.05 126.19H667.99Q667.7 148.31 667.7 170.92Q667.7 193.53 667.99 215.73ZM629.17 219.26H648.43L657.7 126.19H635.5L631.67 180ZM933.76 243.81H956.4L943.32 152.95H925.08L925.82 176.62Z"/><path fill="#ABAAA5" d="M553.51 332.17H553.82Q554.77 332.17 555.57 331.88Q556.37 331.59 556.96 330.98Q557.56 330.37 557.89 329.39Q558.22 328.41 558.22 327.04V325.32Q558.22 323.93 557.89 322.95Q557.56 321.97 556.96 321.36Q556.37 320.75 555.56 320.46Q554.76 320.17 553.8 320.17H553.5Q552.56 320.17 551.76 320.45Q550.96 320.73 550.36 321.34Q549.76 321.95 549.42 322.94Q549.08 323.93 549.08 325.32V327.04Q549.08 328.43 549.41 329.41Q549.74 330.38 550.34 331Q550.95 331.61 551.75 331.89Q552.56 332.17 553.51 332.17ZM1058.41 332.17H1058.72Q1059.67 332.17 1060.47 331.88Q1061.27 331.59 1061.86 330.98Q1062.46 330.37 1062.79 329.39Q1063.12 328.41 1063.12 327.04V325.32Q1063.12 323.93 1062.79 322.95Q1062.46 321.97 1061.86 321.36Q1061.27 320.75 1060.46 320.46Q1059.66 320.17 1058.7 320.17H1058.4Q1057.46 320.17 1056.66 320.45Q1055.86 320.73 1055.26 321.34Q1054.66 321.95 1054.32 322.94Q1053.98 323.93 1053.98 325.32V327.04Q1053.98 328.43 1054.31 329.41Q1054.64 330.38 1055.24 331Q1055.85 331.61 1056.65 331.89Q1057.46 332.17 1058.41 332.17ZM923.77 332.17H924.08Q925.03 332.17 925.83 331.88Q926.63 331.59 927.23 330.98Q927.82 330.37 928.15 329.39Q928.48 328.41 928.48 327.04V325.32Q928.48 323.93 928.15 322.95Q927.82 321.97 927.23 321.36Q926.63 320.75 925.82 320.46Q925.02 320.17 924.06 320.17H923.76Q922.82 320.17 922.02 320.45Q921.22 320.73 920.62 321.34Q920.02 321.95 919.68 322.94Q919.34 323.93 919.34 325.32V327.04Q919.34 328.43 919.67 329.41Q920 330.38 920.6 331Q921.21 331.61 922.01 331.89Q922.82 332.17 923.77 332.17ZM942.41 332H947.52Q948.46 332 949.19 331.59Q949.92 331.18 950.34 330.48Q950.75 329.77 950.75 328.89Q950.75 328.11 950.52 327.57Q950.29 327.04 949.93 326.71Q949.56 326.39 949.16 326.22Q948.76 326.05 948.42 326V325.9Q948.92 325.76 949.39 325.45Q949.87 325.13 950.18 324.57Q950.48 324.01 950.48 323.14Q950.48 322.33 950.11 321.69Q949.73 321.05 949.05 320.69Q948.37 320.34 947.42 320.34H942.41ZM1073.85 332.1Q1074.17 332.1 1074.47 332.06Q1074.77 332.02 1074.99 331.91V331.44Q1074.5 331.3 1074.31 330.84Q1074.12 330.38 1074.12 329.25Q1074.12 328.57 1073.92 327.96Q1073.71 327.36 1073.31 326.93Q1072.92 326.51 1072.3 326.34V326.25Q1073.22 326.07 1073.78 325.28Q1074.34 324.49 1074.34 323.4Q1074.34 322.46 1073.91 321.78Q1073.48 321.1 1072.72 320.72Q1071.96 320.34 1071.01 320.34H1065.83V332H1067.88V327.19H1070.16Q1070.52 327.19 1070.86 327.34Q1071.2 327.49 1071.46 327.81Q1071.72 328.12 1071.89 328.64Q1072.05 329.16 1072.05 329.91Q1072.05 330.79 1072.29 331.27Q1072.54 331.74 1072.96 331.92Q1073.37 332.1 1073.85 332.1ZM804.57 332.1Q804.89 332.1 805.19 332.06Q805.49 332.02 805.71 331.91V331.44Q805.22 331.3 805.03 330.84Q804.84 330.38 804.84 329.25Q804.84 328.57 804.64 327.96Q804.43 327.36 804.03 326.93Q803.64 326.51 803.02 326.34V326.25Q803.94 326.07 804.5 325.28Q805.06 324.49 805.06 323.4Q805.06 322.46 804.63 321.78Q804.2 321.1 803.44 320.72Q802.68 320.34 801.73 320.34H796.55V332H798.6V327.19H800.88Q801.24 327.19 801.58 327.34Q801.92 327.49 802.18 327.81Q802.45 328.12 802.61 328.64Q802.77 329.16 802.77 329.91Q802.77 330.79 803.01 331.27Q803.26 331.74 803.68 331.92Q804.09 332.1 804.57 332.1ZM445.53 332.1Q445.85 332.1 446.15 332.06Q446.45 332.02 446.67 331.91V331.44Q446.18 331.3 445.99 330.84Q445.8 330.38 445.8 329.25Q445.8 328.57 445.6 327.96Q445.39 327.36 444.99 326.93Q444.6 326.51 443.98 326.34V326.25Q444.9 326.07 445.46 325.28Q446.02 324.49 446.02 323.4Q446.02 322.46 445.59 321.78Q445.16 321.1 444.4 320.72Q443.64 320.34 442.69 320.34H437.51V332H439.56V327.19H441.84Q442.2 327.19 442.54 327.34Q442.88 327.49 443.14 327.81Q443.4 328.12 443.57 328.64Q443.73 329.16 443.73 329.91Q443.73 330.79 443.97 331.27Q444.22 331.74 444.64 331.92Q445.05 332.1 445.53 332.1ZM501.63 332.1Q501.95 332.1 502.25 332.06Q502.55 332.02 502.77 331.91V331.44Q502.28 331.3 502.09 330.84Q501.9 330.38 501.9 329.25Q501.9 328.57 501.7 327.96Q501.49 327.36 501.09 326.93Q500.7 326.51 500.08 326.34V326.25Q501 326.07 501.56 325.28Q502.12 324.49 502.12 323.4Q502.12 322.46 501.69 321.78Q501.26 321.1 500.5 320.72Q499.74 320.34 498.79 320.34H493.61V332H495.66V327.19H497.94Q498.3 327.19 498.64 327.34Q498.98 327.49 499.24 327.81Q499.51 328.12 499.67 328.64Q499.83 329.16 499.83 329.91Q499.83 330.79 500.07 331.27Q500.32 331.74 500.74 331.92Q501.15 332.1 501.63 332.1ZM748.47 332.1Q748.79 332.1 749.09 332.06Q749.39 332.02 749.61 331.91V331.44Q749.12 331.3 748.93 330.84Q748.74 330.38 748.74 329.25Q748.74 328.57 748.54 327.96Q748.33 327.36 747.93 326.93Q747.54 326.51 746.92 326.34V326.25Q747.84 326.07 748.4 325.28Q748.96 324.49 748.96 323.4Q748.96 322.46 748.53 321.78Q748.1 321.1 747.34 320.72Q746.58 320.34 745.63 320.34H740.45V332H742.5V327.19H744.78Q745.14 327.19 745.48 327.34Q745.82 327.49 746.08 327.81Q746.34 328.12 746.51 328.64Q746.67 329.16 746.67 329.91Q746.67 330.79 746.91 331.27Q747.16 331.74 747.58 331.92Q747.99 332.1 748.47 332.1ZM470.91 332H472.56V322.77H472.64L474.16 332H475.82L477.37 322.77H477.46V332H479.31V320.34H476.62L475.13 329.02H475.06L473.61 320.34H470.91ZM650.43 332H652.08V322.77H652.17L653.68 332H655.34L656.89 322.77H656.98V332H658.83V320.34H656.14L654.65 329.02H654.58L653.13 320.34H650.43ZM527.79 332H529.97L531.18 324.03H531.24L532.47 332H534.63L536.31 320.34H534.7L533.44 328.68H533.37L532.13 320.34H530.51L529.27 328.68H529.2L527.93 320.34H526.11ZM763.41 332H765.59L766.8 324.03H766.86L768.09 332H770.25L771.93 320.34H770.32L769.06 328.68H768.99L767.75 320.34H766.13L764.89 328.68H764.82L763.55 320.34H761.73ZM1043.91 332H1046.09L1047.3 324.03H1047.36L1048.59 332H1050.75L1052.43 320.34H1050.81L1049.56 328.68H1049.49L1048.25 320.34H1046.63L1045.39 328.68H1045.32L1044.05 320.34H1042.23ZM673.13 332H675.05V324.16L675.11 324.15L675.61 325.3L678.99 332H681.01V320.34H679.09V328.24H679.03L678.43 326.93L675.15 320.34H673.13ZM987.29 332H989.21V324.16L989.28 324.15L989.77 325.3L993.15 332H995.17V320.34H993.25V328.24H993.18L992.59 326.93L989.31 320.34H987.29ZM908.75 332H910.67V324.16L910.73 324.15L911.23 325.3L914.61 332H916.63V320.34H914.71V328.24H914.65L914.05 326.93L910.77 320.34H908.75ZM1099.49 332H1101.41V324.16L1101.47 324.15L1101.97 325.3L1105.35 332H1107.37V320.34H1105.45V328.24H1105.39L1104.79 326.93L1101.51 320.34H1099.49ZM728.26 332H730.28L731 329.47H735.23L735.97 332H738.08L734.45 320.34H731.88ZM458.98 332H461L461.72 329.47H465.95L466.7 332H468.8L465.17 320.34H462.6ZM380.44 332H382.46L383.18 329.47H387.41L388.15 332H390.26L386.62 320.34H384.06ZM874.12 332H876.14L876.86 329.47H881.09L881.83 332H883.94L880.3 320.34H877.74ZM638.5 332H640.52L641.24 329.47H645.47L646.21 332H648.32L644.68 320.34H642.12ZM631.95 332.17H632.09Q633.02 332.17 633.86 331.76Q634.69 331.35 635.13 330.57L635.49 332H636.7Q636.64 331.56 636.61 331.03Q636.58 330.5 636.58 329.79V325.79H631.9V327.26H634.64V327.85Q634.64 328.91 634.31 329.49Q633.97 330.08 633.41 330.31Q632.85 330.54 632.19 330.54Q631.68 330.54 631.24 330.38Q630.8 330.23 630.46 329.88Q630.13 329.54 629.95 328.93Q629.76 328.33 629.76 327.43V324.89Q629.76 323.69 630.07 323.02Q630.39 322.34 630.93 322.07Q631.48 321.8 632.17 321.8Q632.96 321.8 633.49 322.1Q634.03 322.4 634.32 322.97Q634.6 323.55 634.6 324.43H636.58Q636.58 323.33 636.24 322.52Q635.91 321.71 635.33 321.2Q634.74 320.68 633.98 320.42Q633.23 320.17 632.36 320.17H632.04Q631.07 320.17 630.26 320.45Q629.45 320.73 628.86 321.34Q628.26 321.95 627.94 322.94Q627.62 323.93 627.62 325.32V327.04Q627.62 328.43 627.95 329.41Q628.28 330.38 628.87 331Q629.45 331.61 630.24 331.89Q631.03 332.17 631.95 332.17ZM688.05 332.17H688.19Q689.12 332.17 689.96 331.76Q690.79 331.35 691.23 330.57L691.59 332H692.8Q692.74 331.56 692.71 331.03Q692.68 330.5 692.68 329.79V325.79H688V327.26H690.74V327.85Q690.74 328.91 690.41 329.49Q690.08 330.08 689.51 330.31Q688.95 330.54 688.29 330.54Q687.78 330.54 687.34 330.38Q686.9 330.23 686.56 329.88Q686.23 329.54 686.05 328.93Q685.86 328.33 685.86 327.43V324.89Q685.86 323.69 686.17 323.02Q686.49 322.34 687.03 322.07Q687.58 321.8 688.27 321.8Q689.05 321.8 689.59 322.1Q690.13 322.4 690.41 322.97Q690.7 323.55 690.7 324.43H692.68Q692.68 323.33 692.34 322.52Q692.01 321.71 691.43 321.2Q690.84 320.68 690.08 320.42Q689.33 320.17 688.46 320.17H688.14Q687.17 320.17 686.36 320.45Q685.55 320.73 684.96 321.34Q684.36 321.95 684.04 322.94Q683.72 323.93 683.72 325.32V327.04Q683.72 328.43 684.05 329.41Q684.38 330.38 684.97 331Q685.55 331.61 686.34 331.89Q687.13 332.17 688.05 332.17ZM710.49 332.17H710.63Q711.56 332.17 712.4 331.76Q713.23 331.35 713.67 330.57L714.03 332H715.23Q715.18 331.56 715.15 331.03Q715.12 330.5 715.12 329.79V325.79H710.44V327.26H713.18V327.85Q713.18 328.91 712.85 329.49Q712.52 330.08 711.95 330.31Q711.39 330.54 710.73 330.54Q710.22 330.54 709.78 330.38Q709.34 330.23 709 329.88Q708.67 329.54 708.49 328.93Q708.3 328.33 708.3 327.43V324.89Q708.3 323.69 708.61 323.02Q708.93 322.34 709.47 322.07Q710.02 321.8 710.71 321.8Q711.49 321.8 712.03 322.1Q712.57 322.4 712.86 322.97Q713.14 323.55 713.14 324.43H715.12Q715.12 323.33 714.78 322.52Q714.45 321.71 713.87 321.2Q713.28 320.68 712.52 320.42Q711.77 320.17 710.9 320.17H710.58Q709.61 320.17 708.8 320.45Q707.99 320.73 707.4 321.34Q706.8 321.95 706.48 322.94Q706.16 323.93 706.16 325.32V327.04Q706.16 328.43 706.49 329.41Q706.82 330.38 707.41 331Q707.99 331.61 708.78 331.89Q709.57 332.17 710.49 332.17ZM1114.41 332.17H1114.55Q1115.48 332.17 1116.32 331.76Q1117.15 331.35 1117.59 330.57L1117.95 332H1119.16Q1119.1 331.56 1119.07 331.03Q1119.04 330.5 1119.04 329.79V325.79H1114.36V327.26H1117.1V327.85Q1117.1 328.91 1116.77 329.49Q1116.44 330.08 1115.87 330.31Q1115.31 330.54 1114.65 330.54Q1114.14 330.54 1113.7 330.38Q1113.26 330.23 1112.92 329.88Q1112.59 329.54 1112.41 328.93Q1112.22 328.33 1112.22 327.43V324.89Q1112.22 323.69 1112.53 323.02Q1112.85 322.34 1113.39 322.07Q1113.94 321.8 1114.63 321.8Q1115.42 321.8 1115.95 322.1Q1116.49 322.4 1116.78 322.97Q1117.06 323.55 1117.06 324.43H1119.04Q1119.04 323.33 1118.7 322.52Q1118.37 321.71 1117.79 321.2Q1117.2 320.68 1116.44 320.42Q1115.69 320.17 1114.82 320.17H1114.5Q1113.53 320.17 1112.72 320.45Q1111.91 320.73 1111.32 321.34Q1110.72 321.95 1110.4 322.94Q1110.08 323.93 1110.08 325.32V327.04Q1110.08 328.43 1110.41 329.41Q1110.74 330.38 1111.33 331Q1111.91 331.61 1112.7 331.89Q1113.49 332.17 1114.41 332.17ZM1024.87 332.17Q1026.18 332.17 1027.21 331.8Q1028.24 331.44 1028.83 330.63Q1029.43 329.82 1029.43 328.5Q1029.43 327.56 1029.05 326.96Q1028.68 326.36 1028.09 325.99Q1027.49 325.62 1026.78 325.41Q1026.06 325.2 1025.35 325.03Q1024.64 324.86 1024.04 324.66Q1023.45 324.47 1023.09 324.14Q1022.73 323.81 1022.73 323.24Q1022.73 322.72 1023.01 322.4Q1023.29 322.07 1023.79 321.92Q1024.29 321.77 1024.94 321.77Q1025.64 321.77 1026.15 321.96Q1026.66 322.16 1026.94 322.53Q1027.22 322.9 1027.22 323.43V323.67H1029.14V323.45Q1029.14 322.29 1028.57 321.57Q1028 320.85 1027.05 320.51Q1026.1 320.17 1024.94 320.17Q1023.77 320.17 1022.79 320.52Q1021.81 320.87 1021.22 321.58Q1020.62 322.29 1020.62 323.4Q1020.62 324.33 1020.99 324.95Q1021.35 325.56 1021.95 325.92Q1022.54 326.29 1023.26 326.51Q1023.97 326.73 1024.68 326.91Q1025.38 327.09 1025.98 327.3Q1026.57 327.51 1026.94 327.86Q1027.3 328.21 1027.3 328.79Q1027.3 329.4 1027.01 329.78Q1026.71 330.16 1026.16 330.33Q1025.62 330.5 1024.84 330.5Q1024.06 330.5 1023.49 330.3Q1022.92 330.1 1022.61 329.68Q1022.31 329.26 1022.31 328.63V328.46Q1022.31 328.38 1022.32 328.29H1020.37Q1020.35 328.38 1020.35 328.47V328.65Q1020.35 329.6 1020.72 330.27Q1021.08 330.95 1021.71 331.36Q1022.34 331.78 1023.16 331.97Q1023.97 332.17 1024.87 332.17ZM890.23 332.17Q891.54 332.17 892.57 331.8Q893.6 331.44 894.19 330.63Q894.79 329.82 894.79 328.5Q894.79 327.56 894.42 326.96Q894.04 326.36 893.45 325.99Q892.85 325.62 892.14 325.41Q891.42 325.2 890.71 325.03Q889.99 324.86 889.4 324.66Q888.8 324.47 888.45 324.14Q888.09 323.81 888.09 323.24Q888.09 322.72 888.37 322.4Q888.65 322.07 889.15 321.92Q889.66 321.77 890.3 321.77Q891 321.77 891.51 321.96Q892.02 322.16 892.3 322.53Q892.58 322.9 892.58 323.43V323.67H894.5V323.45Q894.5 322.29 893.93 321.57Q893.36 320.85 892.41 320.51Q891.46 320.17 890.3 320.17Q889.13 320.17 888.15 320.52Q887.17 320.87 886.58 321.58Q885.98 322.29 885.98 323.4Q885.98 324.33 886.35 324.95Q886.71 325.56 887.31 325.92Q887.9 326.29 888.62 326.51Q889.33 326.73 890.04 326.91Q890.74 327.09 891.34 327.3Q891.93 327.51 892.3 327.86Q892.66 328.21 892.66 328.79Q892.66 329.4 892.37 329.78Q892.07 330.16 891.52 330.33Q890.98 330.5 890.2 330.5Q889.42 330.5 888.85 330.3Q888.28 330.1 887.97 329.68Q887.67 329.26 887.67 328.63V328.46Q887.67 328.38 887.68 328.29H885.73Q885.71 328.38 885.71 328.47V328.65Q885.71 329.6 886.08 330.27Q886.44 330.95 887.07 331.36Q887.7 331.78 888.52 331.97Q889.33 332.17 890.23 332.17ZM598.51 332.17Q599.82 332.17 600.85 331.8Q601.88 331.44 602.47 330.63Q603.07 329.82 603.07 328.5Q603.07 327.56 602.69 326.96Q602.32 326.36 601.73 325.99Q601.13 325.62 600.42 325.41Q599.7 325.2 598.99 325.03Q598.28 324.86 597.68 324.66Q597.09 324.47 596.73 324.14Q596.37 323.81 596.37 323.24Q596.37 322.72 596.65 322.4Q596.93 322.07 597.43 321.92Q597.93 321.77 598.58 321.77Q599.28 321.77 599.79 321.96Q600.3 322.16 600.58 322.53Q600.86 322.9 600.86 323.43V323.67H602.78V323.45Q602.78 322.29 602.21 321.57Q601.64 320.85 600.69 320.51Q599.74 320.17 598.58 320.17Q597.41 320.17 596.43 320.52Q595.45 320.87 594.86 321.58Q594.26 322.29 594.26 323.4Q594.26 324.33 594.63 324.95Q594.99 325.56 595.59 325.92Q596.18 326.29 596.9 326.51Q597.61 326.73 598.32 326.91Q599.02 327.09 599.62 327.3Q600.21 327.51 600.58 327.86Q600.94 328.21 600.94 328.79Q600.94 329.4 600.65 329.78Q600.35 330.16 599.8 330.33Q599.26 330.5 598.48 330.5Q597.7 330.5 597.13 330.3Q596.56 330.1 596.25 329.68Q595.95 329.26 595.95 328.63V328.46Q595.95 328.38 595.96 328.29H594.01Q593.99 328.38 593.99 328.47V328.65Q593.99 329.6 594.36 330.27Q594.72 330.95 595.35 331.36Q595.98 331.78 596.8 331.97Q597.61 332.17 598.51 332.17ZM508.75 332.17Q510.06 332.17 511.09 331.8Q512.12 331.44 512.71 330.63Q513.31 329.82 513.31 328.5Q513.31 327.56 512.94 326.96Q512.56 326.36 511.97 325.99Q511.37 325.62 510.66 325.41Q509.94 325.2 509.23 325.03Q508.52 324.86 507.92 324.66Q507.33 324.47 506.97 324.14Q506.61 323.81 506.61 323.24Q506.61 322.72 506.89 322.4Q507.17 322.07 507.67 321.92Q508.18 321.77 508.82 321.77Q509.52 321.77 510.03 321.96Q510.54 322.16 510.82 322.53Q511.1 322.9 511.1 323.43V323.67H513.02V323.45Q513.02 322.29 512.45 321.57Q511.88 320.85 510.93 320.51Q509.98 320.17 508.82 320.17Q507.65 320.17 506.67 320.52Q505.69 320.87 505.1 321.58Q504.5 322.29 504.5 323.4Q504.5 324.33 504.87 324.95Q505.23 325.56 505.83 325.92Q506.42 326.29 507.14 326.51Q507.85 326.73 508.56 326.91Q509.26 327.09 509.86 327.3Q510.45 327.51 510.82 327.86Q511.18 328.21 511.18 328.79Q511.18 329.4 510.89 329.78Q510.59 330.16 510.05 330.33Q509.5 330.5 508.72 330.5Q507.94 330.5 507.37 330.3Q506.8 330.1 506.49 329.68Q506.19 329.26 506.19 328.63V328.46Q506.19 328.38 506.2 328.29H504.25Q504.23 328.38 504.23 328.47V328.65Q504.23 329.6 504.6 330.27Q504.96 330.95 505.59 331.36Q506.22 331.78 507.04 331.97Q507.85 332.17 508.75 332.17ZM418.99 332.17Q420.3 332.17 421.33 331.8Q422.36 331.44 422.95 330.63Q423.55 329.82 423.55 328.5Q423.55 327.56 423.18 326.96Q422.8 326.36 422.21 325.99Q421.61 325.62 420.9 325.41Q420.18 325.2 419.47 325.03Q418.76 324.86 418.16 324.66Q417.57 324.47 417.21 324.14Q416.85 323.81 416.85 323.24Q416.85 322.72 417.13 322.4Q417.41 322.07 417.91 321.92Q418.42 321.77 419.06 321.77Q419.76 321.77 420.27 321.96Q420.78 322.16 421.06 322.53Q421.34 322.9 421.34 323.43V323.67H423.26V323.45Q423.26 322.29 422.69 321.57Q422.12 320.85 421.17 320.51Q420.22 320.17 419.06 320.17Q417.89 320.17 416.91 320.52Q415.93 320.87 415.34 321.58Q414.74 322.29 414.74 323.4Q414.74 324.33 415.11 324.95Q415.47 325.56 416.07 325.92Q416.66 326.29 417.38 326.51Q418.09 326.73 418.8 326.91Q419.5 327.09 420.1 327.3Q420.69 327.51 421.06 327.86Q421.42 328.21 421.42 328.79Q421.42 329.4 421.13 329.78Q420.83 330.16 420.29 330.33Q419.74 330.5 418.96 330.5Q418.18 330.5 417.61 330.3Q417.04 330.1 416.73 329.68Q416.43 329.26 416.43 328.63V328.46Q416.43 328.38 416.44 328.29H414.49Q414.47 328.38 414.47 328.47V328.65Q414.47 329.6 414.84 330.27Q415.2 330.95 415.83 331.36Q416.46 331.78 417.28 331.97Q418.09 332.17 418.99 332.17ZM1013.65 332.17Q1014.96 332.17 1015.99 331.8Q1017.02 331.44 1017.61 330.63Q1018.21 329.82 1018.21 328.5Q1018.21 327.56 1017.83 326.96Q1017.46 326.36 1016.87 325.99Q1016.27 325.62 1015.56 325.41Q1014.84 325.2 1014.13 325.03Q1013.41 324.86 1012.82 324.66Q1012.22 324.47 1011.87 324.14Q1011.51 323.81 1011.51 323.24Q1011.51 322.72 1011.79 322.4Q1012.07 322.07 1012.57 321.92Q1013.08 321.77 1013.72 321.77Q1014.42 321.77 1014.93 321.96Q1015.44 322.16 1015.72 322.53Q1016 322.9 1016 323.43V323.67H1017.92V323.45Q1017.92 322.29 1017.35 321.57Q1016.78 320.85 1015.83 320.51Q1014.88 320.17 1013.72 320.17Q1012.55 320.17 1011.57 320.52Q1010.59 320.87 1010 321.58Q1009.4 322.29 1009.4 323.4Q1009.4 324.33 1009.77 324.95Q1010.13 325.56 1010.73 325.92Q1011.32 326.29 1012.04 326.51Q1012.75 326.73 1013.46 326.91Q1014.16 327.09 1014.76 327.3Q1015.35 327.51 1015.72 327.86Q1016.08 328.21 1016.08 328.79Q1016.08 329.4 1015.79 329.78Q1015.49 330.16 1014.95 330.33Q1014.4 330.5 1013.62 330.5Q1012.84 330.5 1012.27 330.3Q1011.7 330.1 1011.39 329.68Q1011.09 329.26 1011.09 328.63V328.46Q1011.09 328.38 1011.1 328.29H1009.15Q1009.13 328.38 1009.13 328.47V328.65Q1009.13 329.6 1009.5 330.27Q1009.86 330.95 1010.49 331.36Q1011.12 331.78 1011.94 331.97Q1012.75 332.17 1013.65 332.17ZM968.77 332.17Q970.08 332.17 971.11 331.8Q972.14 331.44 972.73 330.63Q973.33 329.82 973.33 328.5Q973.33 327.56 972.95 326.96Q972.58 326.36 971.99 325.99Q971.39 325.62 970.68 325.41Q969.96 325.2 969.25 325.03Q968.53 324.86 967.94 324.66Q967.34 324.47 966.99 324.14Q966.63 323.81 966.63 323.24Q966.63 322.72 966.91 322.4Q967.19 322.07 967.69 321.92Q968.2 321.77 968.84 321.77Q969.54 321.77 970.05 321.96Q970.56 322.16 970.84 322.53Q971.12 322.9 971.12 323.43V323.67H973.04V323.45Q973.04 322.29 972.47 321.57Q971.9 320.85 970.95 320.51Q970 320.17 968.84 320.17Q967.67 320.17 966.69 320.52Q965.71 320.87 965.12 321.58Q964.52 322.29 964.52 323.4Q964.52 324.33 964.89 324.95Q965.25 325.56 965.85 325.92Q966.44 326.29 967.16 326.51Q967.87 326.73 968.58 326.91Q969.28 327.09 969.88 327.3Q970.47 327.51 970.84 327.86Q971.2 328.21 971.2 328.79Q971.2 329.4 970.91 329.78Q970.61 330.16 970.07 330.33Q969.52 330.5 968.74 330.5Q967.96 330.5 967.39 330.3Q966.82 330.1 966.51 329.68Q966.21 329.26 966.21 328.63V328.46Q966.21 328.38 966.22 328.29H964.27Q964.25 328.38 964.25 328.47V328.65Q964.25 329.6 964.62 330.27Q964.98 330.95 965.61 331.36Q966.24 331.78 967.06 331.97Q967.87 332.17 968.77 332.17ZM863.87 332H865.89V326.9H869.73V332H871.75V320.34H869.73V325.2H865.89V320.34H863.87ZM538.49 332H540.51V326.9H544.35V332H546.37V320.34H544.35V325.2H540.51V320.34H538.49ZM774.11 332H776.13V326.9H779.97V332H781.99V320.34H779.97V325.2H776.13V320.34H774.11ZM1077.05 332H1079.07V328.89L1080.43 327.09L1083.56 332H1085.89L1082.01 325.79L1085.72 320.34H1083.54L1079.07 326.51V320.34H1077.05ZM718.24 332H726.08L725.83 330.3H720.32V326.85H725.28V325.23H720.32V321.99H725.74L726 320.34H718.24ZM448.96 332H456.8L456.55 330.3H451.04V326.85H456V325.23H451.04V321.99H456.46L456.72 320.34H448.96ZM785.56 332H793.4L793.15 330.3H787.64V326.85H792.6V325.23H787.64V321.99H793.06L793.32 320.34H785.56ZM808 332H815.84L815.59 330.3H810.08V326.85H815.04V325.23H810.08V321.99H815.5L815.76 320.34H808ZM482.62 332H490.46L490.21 330.3H484.7V326.85H489.66V325.23H484.7V321.99H490.12L490.38 320.34H482.62ZM583.6 332H591.44L591.19 330.3H585.68V326.85H590.64V325.23H585.68V321.99H591.1L591.36 320.34H583.6ZM998.74 332H1006.58L1006.33 330.3H1000.82V326.85H1005.78V325.23H1000.82V321.99H1006.24L1006.5 320.34H998.74ZM957.38 332.17H957.76Q959.61 332.17 960.65 331.14Q961.68 330.11 961.68 328.28V320.34H959.66V328.28Q959.66 329.35 959.12 329.94Q958.57 330.54 957.57 330.54Q956.58 330.54 956.03 329.94Q955.48 329.35 955.48 328.28V320.34H953.46V328.28Q953.46 330.11 954.49 331.14Q955.53 332.17 957.38 332.17ZM976.58 332H983.44V330.42H981.06V321.92H983.44V320.34H976.58V321.92H978.96V330.42H976.58ZM662.42 332H669.28V330.42H666.9V321.92H669.28V320.34H662.42V321.92H664.8V330.42H662.42ZM830.72 332H837.58V330.42H835.2V321.92H837.58V320.34H830.72V321.92H833.1V330.42H830.72ZM393.14 332H400V330.42H397.62V321.92H400V320.34H393.14V321.92H395.52V330.42H393.14ZM1088.78 332H1095.64V330.42H1093.26V321.92H1095.64V320.34H1088.78V321.92H1091.16V330.42H1088.78ZM553.65 330.54Q553.14 330.54 552.7 330.38Q552.26 330.23 551.92 329.88Q551.59 329.54 551.41 328.93Q551.22 328.33 551.22 327.43V324.89Q551.22 323.99 551.41 323.4Q551.59 322.8 551.92 322.45Q552.26 322.11 552.7 321.95Q553.14 321.8 553.65 321.8Q554.16 321.8 554.61 321.95Q555.06 322.11 555.39 322.45Q555.72 322.8 555.91 323.4Q556.1 323.99 556.1 324.89V327.43Q556.1 328.33 555.91 328.93Q555.72 329.54 555.39 329.88Q555.06 330.23 554.61 330.38Q554.16 330.54 553.65 330.54ZM1058.55 330.54Q1058.04 330.54 1057.6 330.38Q1057.16 330.23 1056.82 329.88Q1056.49 329.54 1056.31 328.93Q1056.12 328.33 1056.12 327.43V324.89Q1056.12 323.99 1056.31 323.4Q1056.49 322.8 1056.82 322.45Q1057.16 322.11 1057.6 321.95Q1058.04 321.8 1058.55 321.8Q1059.06 321.8 1059.51 321.95Q1059.96 322.11 1060.29 322.45Q1060.62 322.8 1060.81 323.4Q1061 323.99 1061 324.89V327.43Q1061 328.33 1060.81 328.93Q1060.62 329.54 1060.29 329.88Q1059.96 330.23 1059.51 330.38Q1059.06 330.54 1058.55 330.54ZM923.91 330.54Q923.4 330.54 922.96 330.38Q922.52 330.23 922.18 329.88Q921.85 329.54 921.67 328.93Q921.48 328.33 921.48 327.43V324.89Q921.48 323.99 921.67 323.4Q921.85 322.8 922.18 322.45Q922.52 322.11 922.96 321.95Q923.4 321.8 923.91 321.8Q924.42 321.8 924.87 321.95Q925.32 322.11 925.65 322.45Q925.98 322.8 926.17 323.4Q926.36 323.99 926.36 324.89V327.43Q926.36 328.33 926.17 328.93Q925.98 329.54 925.65 329.88Q925.32 330.23 924.87 330.38Q924.42 330.54 923.91 330.54ZM575.05 332H577.13V322.04H580.63V320.34H571.55V322.04H575.05ZM608.71 332H610.79V322.04H614.29V320.34H605.21V322.04H608.71ZM844.33 332H846.41V322.04H849.91V320.34H840.83V322.04H844.33ZM429.19 332H431.27V322.04H434.77V320.34H425.69V322.04H429.19ZM742.5 325.57V321.97H745.16Q746.01 321.97 746.46 322.44Q746.92 322.9 746.92 323.7Q746.92 324.5 746.45 325.04Q745.97 325.57 745.05 325.57ZM798.6 325.57V321.97H801.26Q802.1 321.97 802.56 322.44Q803.02 322.9 803.02 323.7Q803.02 324.5 802.55 325.04Q802.07 325.57 801.15 325.57ZM439.56 325.57V321.97H442.21Q443.07 321.97 443.52 322.44Q443.98 322.9 443.98 323.7Q443.98 324.5 443.51 325.04Q443.03 325.57 442.11 325.57ZM1067.88 325.57V321.97H1070.53Q1071.39 321.97 1071.84 322.44Q1072.3 322.9 1072.3 323.7Q1072.3 324.5 1071.83 325.04Q1071.35 325.57 1070.43 325.57ZM495.66 325.57V321.97H498.32Q499.17 321.97 499.62 322.44Q500.08 322.9 500.08 323.7Q500.08 324.5 499.61 325.04Q499.13 325.57 498.21 325.57ZM944.34 330.35V326.83H947Q947.47 326.83 947.86 327.04Q948.25 327.26 948.48 327.65Q948.71 328.04 948.71 328.58Q948.71 329.06 948.5 329.47Q948.29 329.88 947.9 330.11Q947.51 330.35 947 330.35ZM944.34 325.27V321.9H946.96Q947.69 321.9 948.08 322.33Q948.46 322.75 948.46 323.53Q948.46 324.03 948.25 324.43Q948.03 324.83 947.66 325.05Q947.28 325.27 946.81 325.27ZM645.02 327.92H641.68L643.29 322.26H643.36L645.02 327.92ZM734.78 327.92H731.44L733.05 322.26H733.12L734.78 327.92ZM386.96 327.92H383.62L385.23 322.26H385.3L386.96 327.92ZM465.5 327.92H462.16L463.77 322.26H463.84L465.5 327.92ZM880.64 327.92H877.3L878.91 322.26H878.98L880.64 327.92Z"/><path fill="#ABAAA5" d="M1399.59 438.15Q1400.44 438.15 1401.02 437.84Q1401.6 437.53 1401.94 436.97L1402.11 438H1403.53V427.2H1401.79V431.13Q1401.47 430.69 1400.92 430.44Q1400.38 430.18 1399.64 430.18Q1398.79 430.18 1398.09 430.63Q1397.39 431.08 1396.98 431.97Q1396.56 432.86 1396.56 434.14V434.31Q1396.56 435.66 1396.98 436.51Q1397.39 437.35 1398.08 437.75Q1398.77 438.15 1399.59 438.15ZM1343.33 438.15Q1344.28 438.15 1344.97 437.67Q1345.67 437.19 1346.05 436.3Q1346.44 435.4 1346.44 434.19V433.98Q1346.44 432.86 1346.09 432Q1345.74 431.14 1345.07 430.66Q1344.4 430.18 1343.39 430.18Q1342.64 430.18 1342.09 430.45Q1341.55 430.71 1341.21 431.18V427.2H1339.47V438H1340.89L1341.04 436.97Q1341.4 437.55 1341.99 437.85Q1342.59 438.15 1343.33 438.15ZM1333.73 438.15Q1334.68 438.15 1335.37 437.67Q1336.07 437.19 1336.45 436.3Q1336.83 435.4 1336.83 434.19V433.98Q1336.83 432.86 1336.49 432Q1336.15 431.14 1335.47 430.66Q1334.8 430.18 1333.79 430.18Q1333.04 430.18 1332.49 430.45Q1331.94 430.71 1331.61 431.18V427.2H1329.88V438H1331.29L1331.44 436.97Q1331.8 437.55 1332.4 437.85Q1332.99 438.15 1333.73 438.15ZM1419.5 438.15Q1420.64 438.15 1421.46 437.66Q1422.28 437.17 1422.71 436.3Q1423.15 435.43 1423.15 434.29V434.04Q1423.15 432.92 1422.71 432.05Q1422.28 431.18 1421.46 430.68Q1420.64 430.18 1419.48 430.18Q1418.36 430.18 1417.54 430.67Q1416.72 431.16 1416.29 432.03Q1415.85 432.9 1415.85 434.04V434.29Q1415.85 435.4 1416.29 436.28Q1416.72 437.16 1417.54 437.66Q1418.36 438.15 1419.5 438.15ZM1351.2 438.15Q1351.76 438.15 1352.25 438.04Q1352.73 437.92 1353.12 437.66Q1353.5 437.4 1353.76 436.97Q1353.8 437.42 1353.94 437.67Q1354.08 437.92 1354.39 438.04Q1354.69 438.15 1355.17 438.15Q1355.49 438.15 1355.8 438.08Q1356.11 438 1356.31 437.87V436.78Q1356.08 436.95 1355.77 436.95Q1355.57 436.95 1355.46 436.85Q1355.34 436.74 1355.34 436.5V432.58Q1355.34 431.39 1354.54 430.78Q1353.74 430.18 1352.18 430.18Q1350.72 430.18 1349.85 430.78Q1348.98 431.36 1348.97 432.35Q1348.97 432.35 1348.98 432.41Q1348.98 432.48 1349 432.68H1350.6V432.53Q1350.6 431.97 1351 431.66Q1351.4 431.36 1352.12 431.36Q1352.92 431.36 1353.26 431.66Q1353.6 431.97 1353.6 432.63V433.43Q1351.85 433.43 1350.78 433.68Q1349.7 433.93 1349.22 434.49Q1348.73 435.04 1348.73 435.94Q1348.73 437.04 1349.38 437.6Q1350.02 438.15 1351.2 438.15ZM1311.02 438H1312.78L1313.93 432.6H1313.99L1315.06 438H1316.81L1318.4 430.33H1317.02L1315.86 435.68H1315.81L1314.76 430.33H1313.18L1312.06 435.68H1311.99L1310.81 430.33H1309.4ZM1389.95 438.15Q1390.55 438.15 1391.02 438.01Q1391.48 437.87 1391.81 437.6Q1392.14 437.34 1392.35 436.97Q1392.4 437.31 1392.5 437.58Q1392.6 437.85 1392.9 438Q1393.19 438.15 1393.74 438.15Q1394.06 438.15 1394.38 438.08Q1394.7 438 1394.9 437.87V436.78Q1394.75 436.89 1394.61 436.92Q1394.46 436.95 1394.33 436.95Q1394.14 436.95 1394.03 436.85Q1393.93 436.74 1393.93 436.5V430.33H1392.19V435.03Q1392.19 435.54 1391.98 435.95Q1391.77 436.37 1391.39 436.6Q1391.02 436.83 1390.54 436.83Q1389.83 436.83 1389.42 436.4Q1389.01 435.97 1389.01 435.11V430.33H1387.25V435.42Q1387.25 436.78 1387.98 437.47Q1388.72 438.15 1389.95 438.15ZM1322.75 438.15Q1323.35 438.15 1323.82 438.01Q1324.28 437.87 1324.61 437.6Q1324.94 437.34 1325.15 436.97Q1325.19 437.31 1325.3 437.58Q1325.41 437.85 1325.7 438Q1325.99 438.15 1326.55 438.15Q1326.86 438.15 1327.18 438.08Q1327.51 438 1327.7 437.87V436.78Q1327.55 436.89 1327.41 436.92Q1327.27 436.95 1327.13 436.95Q1326.94 436.95 1326.83 436.85Q1326.72 436.74 1326.72 436.5V430.33H1324.98V435.03Q1324.98 435.54 1324.77 435.95Q1324.56 436.37 1324.19 436.6Q1323.81 436.83 1323.33 436.83Q1322.63 436.83 1322.22 436.4Q1321.81 435.97 1321.81 435.11V430.33H1320.05V435.42Q1320.05 436.78 1320.79 437.47Q1321.52 438.15 1322.75 438.15ZM1371.36 438.15Q1372.47 438.15 1373.27 437.9Q1374.06 437.64 1374.49 437.11Q1374.92 436.58 1374.92 435.74Q1374.92 435.01 1374.64 434.56Q1374.35 434.11 1373.71 433.84Q1373.06 433.56 1371.98 433.38Q1371.09 433.21 1370.63 433.08Q1370.17 432.94 1369.99 432.77Q1369.82 432.6 1369.82 432.33Q1369.82 431.36 1371.44 431.36Q1371.92 431.36 1372.3 431.45Q1372.69 431.55 1372.91 431.81Q1373.14 432.06 1373.14 432.54H1374.64Q1374.67 432.43 1374.67 432.37V432.25Q1374.67 431.61 1374.24 431.15Q1373.82 430.69 1373.13 430.44Q1372.43 430.18 1371.56 430.18Q1370.57 430.18 1369.82 430.44Q1369.07 430.69 1368.65 431.2Q1368.23 431.71 1368.23 432.5Q1368.23 433.15 1368.51 433.59Q1368.79 434.03 1369.4 434.3Q1370.02 434.57 1371.01 434.73Q1371.96 434.88 1372.46 435.03Q1372.95 435.18 1373.13 435.38Q1373.31 435.58 1373.31 435.9Q1373.31 436.38 1372.88 436.67Q1372.44 436.97 1371.56 436.97Q1370.6 436.97 1370.09 436.64Q1369.58 436.31 1369.58 435.72V435.58H1368.09Q1368.08 435.69 1368.08 435.77V435.9Q1368.08 436.62 1368.5 437.12Q1368.92 437.62 1369.66 437.89Q1370.41 438.15 1371.36 438.15ZM1382.49 438.15Q1383.06 438.15 1383.64 438.04Q1384.22 437.92 1384.59 437.72V436.41Q1384.3 436.56 1383.88 436.68Q1383.47 436.8 1383.01 436.8Q1382.39 436.8 1381.99 436.65Q1381.59 436.5 1381.4 436.18Q1381.2 435.86 1381.2 435.38V431.67H1384.59V430.33H1381.2V427.89H1380.12L1379.53 430.33H1377.31V431.67H1379.46V435.53Q1379.46 436.94 1380.27 437.54Q1381.08 438.15 1382.49 438.15ZM1406.78 438H1413.72V436.69H1411.2V430.33H1406.78V431.67H1409.46V436.69H1406.78ZM1419.5 436.97Q1418.72 436.97 1418.2 436.38Q1417.69 435.79 1417.69 434.78V433.56Q1417.69 432.54 1418.2 431.96Q1418.72 431.37 1419.5 431.37Q1420.3 431.37 1420.8 431.96Q1421.31 432.54 1421.31 433.56V434.78Q1421.31 435.79 1420.8 436.38Q1420.3 436.97 1419.5 436.97ZM1333.35 436.95Q1332.6 436.95 1332.11 436.39Q1331.61 435.84 1331.61 434.65V433.54Q1331.61 432.48 1332.11 431.93Q1332.6 431.39 1333.35 431.39Q1334.1 431.39 1334.59 431.93Q1335.08 432.48 1335.08 433.54V434.65Q1335.08 435.84 1334.59 436.39Q1334.1 436.95 1333.35 436.95ZM1342.95 436.95Q1342.2 436.95 1341.71 436.39Q1341.21 435.84 1341.21 434.65V433.54Q1341.21 432.48 1341.71 431.93Q1342.2 431.39 1342.95 431.39Q1343.7 431.39 1344.19 431.93Q1344.68 432.48 1344.68 433.54V434.65Q1344.68 435.84 1344.19 436.39Q1343.7 436.95 1342.95 436.95ZM1400.05 436.95Q1399.3 436.95 1398.81 436.39Q1398.32 435.82 1398.32 434.68V433.64Q1398.32 432.51 1398.81 431.95Q1399.3 431.39 1400.05 431.39Q1400.8 431.39 1401.29 431.94Q1401.79 432.5 1401.79 433.64V434.7Q1401.79 435.84 1401.29 436.39Q1400.8 436.95 1400.05 436.95ZM1351.78 436.97Q1351.1 436.97 1350.78 436.68Q1350.45 436.4 1350.45 435.84Q1350.45 435.3 1350.76 434.99Q1351.06 434.68 1351.75 434.55Q1352.44 434.42 1353.6 434.42V434.91Q1353.6 435.48 1353.4 435.95Q1353.2 436.42 1352.79 436.69Q1352.39 436.97 1351.78 436.97ZM1360.85 438H1362.95V436.01H1360.85ZM1409.44 428.78H1410.99V427.23H1409.44ZM1348.97 432.35V432.35L1348.97 432.35V432.38Q1348.97 432.36 1348.97 432.35Z"/></svg>
