<svg xmlns="http://www.w3.org/2000/svg" width="1200" height="630" viewBox="0 0 1200 630"><rect width="1200" height="630" fill="#0C0C0A"/><path fill="#171714" d="M0 630H1200V628.8H0ZM0 626H1200V624.8H0ZM0 622H1200V620.8H0ZM0 618H1200V616.8H0ZM0 614H1200V612.8H0ZM0 610H1200V608.8H0ZM0 606H1200V604.8H0ZM0 602H1200V600.8H0ZM0 598H1200V596.8H0ZM0 594H1200V592.8H0ZM0 590H1200V588.8H0ZM0 586H1200V584.8H0ZM0 582H1200V580.8H0ZM0 578H1200V576.8H0ZM0 574H1200V572.8H0ZM0 570H1200V568.8H0ZM0 566H1200V564.8H0ZM0 562H1200V560.8H0ZM0 558H1200V556.8H0ZM0 554H1200V552.8H0ZM0 550H1200V548.8H0ZM0 546H1200V544.8H0ZM0 542H1200V540.8H0ZM0 538H1200V536.8H0ZM0 534H1200V532.8H0ZM0 530H1200V528.8H0ZM0 526H1200V524.8H0ZM0 522H1200V520.8H0ZM0 518H1200V516.8H0ZM0 514H1200V512.8H0ZM0 510H1200V508.8H0ZM0 506H1200V504.8H0ZM0 502H1200V500.8H0ZM0 498H1200V496.8H0ZM0 494H1200V492.8H0ZM0 490H1200V488.8H0ZM0 486H1200V484.8H0ZM0 482H1200V480.8H0ZM0 478H1200V476.8H0ZM0 474H1200V472.8H0ZM0 470H1200V468.8H0ZM0 466H1200V464.8H0ZM0 462H1200V460.8H0ZM0 458H1200V456.8H0ZM0 454H1200V452.8H0ZM0 450H1200V448.8H0ZM0 446H1200V444.8H0ZM0 442H1200V440.8H0ZM0 438H1200V436.8H0ZM0 434H1200V432.8H0ZM0 430H1200V428.8H0ZM0 426H1200V424.8H0ZM0 422H1200V420.8H0ZM0 418H1200V416.8H0ZM0 414H1200V412.8H0ZM0 410H1200V408.8H0ZM0 406H1200V404.8H0ZM0 402H1200V400.8H0ZM0 398H1200V396.8H0ZM0 394H1200V392.8H0ZM0 390H1200V388.8H0ZM0 386H1200V384.8H0ZM0 382H1200V380.8H0ZM0 378H1200V376.8H0ZM0 374H1200V372.8H0ZM0 370H1200V368.8H0ZM0 366H1200V364.8H0ZM0 362H1200V360.8H0ZM0 358H1200V356.8H0ZM0 354H1200V352.8H0ZM0 350H1200V348.8H0ZM0 346H1200V344.8H0ZM0 342H1200V340.8H0ZM0 338H1200V336.8H0ZM0 334H1200V332.8H0ZM0 330H1200V328.8H0ZM0 326H1200V324.8H0ZM0 322H1200V320.8H0ZM0 318H1200V316.8H0ZM0 314H1200V312.8H0ZM0 310H1200V308.8H0ZM0 306H1200V304.8H0ZM0 302H1200V300.8H0ZM0 298H1200V296.8H0ZM0 294H1200V292.8H0ZM0 290H1200V288.8H0ZM0 286H1200V284.8H0ZM0 282H1200V280.8H0ZM0 278H1200V276.8H0ZM0 274H1200V272.8H0ZM0 270H1200V268.8H0ZM0 266H1200V264.8H0ZM0 262H1200V260.8H0ZM0 258H1200V256.8H0ZM0 254H1200V252.8H0ZM0 250H1200V248.8H0ZM0 246H1200V244.8H0ZM0 242H1200V240.8H0ZM0 238H1200V236.8H0ZM0 234H1200V232.8H0ZM0 230H1200V228.8H0ZM0 226H1200V224.8H0ZM0 222H1200V220.8H0ZM0 218H1200V216.8H0ZM0 214H1200V212.8H0ZM0 210H1200V208.8H0ZM0 206H1200V204.8H0ZM0 202H1200V200.8H0ZM0 198H1200V196.8H0ZM0 194H1200V192.8H0ZM0 190H1200V188.8H0ZM0 186H1200V184.8H0ZM0 182H1200V180.8H0ZM0 178H1200V176.8H0ZM0 174H1200V172.8H0ZM0 170H1200V168.8H0ZM0 166H1200V164.8H0ZM0 162H1200V160.8H0ZM0 158H1200V156.8H0ZM0 154H1200V152.8H0ZM0 150H1200V148.8H0ZM0 146H1200V144.8H0ZM0 142H1200V140.8H0ZM0 138H1200V136.8H0ZM0 134H1200V132.8H0ZM0 130H1200V128.8H0ZM0 126H1200V124.8H0ZM0 122H1200V120.8H0ZM0 118H1200V116.8H0ZM0 114H1200V112.8H0ZM0 110H1200V108.8H0ZM0 106H1200V104.8H0ZM0 102H1200V100.8H0ZM0 98H1200V96.8H0ZM0 94H1200V92.8H0ZM0 90H1200V88.8H0ZM0 86H1200V84.8H0ZM0 82H1200V80.8H0ZM0 78H1200V76.8H0ZM0 74H1200V72.8H0ZM0 70H1200V68.8H0ZM0 66H1200V64.8H0ZM0 62H1200V60.8H0ZM0 58H1200V56.8H0ZM0 54H1200V52.8H0ZM0 50H1200V48.8H0ZM0 46H1200V44.8H0ZM0 42H1200V40.8H0ZM0 38H1200V36.8H0ZM0 34H1200V32.8H0ZM0 30H1200V28.8H0ZM0 26H1200V24.8H0ZM0 22H1200V20.8H0ZM0 18H1200V16.8H0ZM0 14H1200V12.8H0ZM0 10H1200V8.8H0ZM0 6H1200V4.8H0ZM0 2H1200V0.8H0Z"/><path fill="#ECE8DC" d="M562.33 212.43Q555.51 212.43 549.39 214.95Q543.26 217.46 538.71 221.85V185.99H509.6V302.13H537.93L538.4 294.12Q542.95 298.75 549.11 301.38Q555.27 304.01 562.33 304.01Q573.46 304.01 581.91 298.01Q590.35 292 595.13 281.61Q599.92 271.21 599.92 258.18Q599.92 245 595.13 234.64Q590.35 224.28 581.91 218.36Q573.46 212.43 562.33 212.43ZM664.35 212.43Q657.52 212.43 651.4 214.95Q645.28 217.46 640.73 221.85V185.99H611.61V302.13H639.94L640.41 294.12Q644.96 298.75 651.12 301.38Q657.28 304.01 664.35 304.01Q675.48 304.01 683.92 298.01Q692.36 292 697.15 281.61Q701.94 271.21 701.94 258.18Q701.94 245 697.15 234.64Q692.36 224.28 683.92 218.36Q675.48 212.43 664.35 212.43ZM312.08 302.13H340.96L347.75 259.09L349.08 237.7L350.42 259.09L357.44 302.13H386.63L398.17 214.2H374.82L370.55 257.79L369.29 276.43L367.56 257.79L361.01 214.2H337.63L331.74 258.5L330.09 276.19L329.03 258.5L324.52 214.2H300ZM770.52 302.13H798.85V245Q798.85 234.64 793.63 227.38Q788.41 220.12 779.03 216.28Q769.66 212.43 757.26 212.43Q744.39 212.43 734.82 216Q725.24 219.57 719.75 226.25Q714.26 232.92 713.39 242.25H741.41Q742.04 237.62 745.84 235.11Q749.65 232.6 755.92 232.6Q762.28 232.6 765.97 235.5Q769.66 238.41 769.66 243.43V248.3H754.28Q736.15 248.3 725.99 256.03Q715.83 263.75 715.83 277.49Q715.83 285.26 719.55 291.26Q723.28 297.26 729.83 300.64Q736.39 304.01 744.7 304.01Q755.14 304.01 762.44 300.32Q766.82 298.11 770.03 294.49ZM436.39 214.32H407.19V270.43Q407.19 280.7 410.8 288.24Q414.41 295.77 421.4 299.89Q428.38 304.01 438.5 304.01Q447.29 304.01 455.3 299.81Q460.05 297.32 464.25 292.87L464.79 302.13H493.2V214.32H464.01V267.46Q459.9 272.95 456.4 275.72Q451.69 279.45 446.27 279.45Q441.49 279.45 438.94 276.15Q436.39 272.86 436.39 267.44ZM553.89 280.23Q548.6 280.23 544.56 276.78Q540.52 273.33 538.71 267.6V248.67Q540.52 242.88 544.56 239.55Q548.6 236.21 553.86 236.21Q558.91 236.21 562.68 239.03Q566.45 241.85 568.59 246.8Q570.73 251.75 570.73 258.19Q570.73 264.52 568.57 269.47Q566.41 274.43 562.66 277.33Q558.92 280.23 553.89 280.23ZM655.91 280.23Q650.61 280.23 646.57 276.78Q642.53 273.33 640.73 267.6V248.67Q642.53 242.88 646.57 239.55Q650.61 236.21 655.87 236.21Q660.92 236.21 664.69 239.03Q668.46 241.85 670.6 246.8Q672.74 251.75 672.74 258.19Q672.74 264.52 670.59 269.47Q668.43 274.43 664.68 277.33Q660.93 280.23 655.91 280.23ZM769.66 267.33V273.85Q767.08 277.19 763.42 279.25Q758.75 281.88 752.79 281.88Q748.63 281.88 746.27 279.92Q743.92 277.96 743.92 275.05Q743.92 271.52 746.78 269.6Q749.65 267.68 754.59 267.6Z"/><path fill="#FFB000" d="M820.43 302.13H900V212.56H820.43Z"/><path fill="#87857E" d="M787.1 374.22Q788.63 374.22 789.77 373.47Q790.91 372.72 791.54 371.34Q792.17 369.96 792.17 368.08Q792.17 366.17 791.54 364.8Q790.91 363.43 789.77 362.68Q788.63 361.94 787.1 361.94Q785.57 361.94 784.43 362.68Q783.28 363.43 782.65 364.81Q782.02 366.19 782.02 368.08Q782.02 369.96 782.65 371.34Q783.28 372.72 784.43 373.47Q785.57 374.22 787.1 374.22ZM388.79 374.22Q390.32 374.22 391.46 373.47Q392.6 372.72 393.23 371.34Q393.86 369.96 393.86 368.08Q393.86 366.17 393.23 364.8Q392.6 363.43 391.46 362.68Q390.32 361.94 388.79 361.94Q387.26 361.94 386.12 362.68Q384.97 363.43 384.34 364.81Q383.71 366.19 383.71 368.08Q383.71 369.96 384.34 371.34Q384.97 372.72 386.12 373.47Q387.26 374.22 388.79 374.22ZM931.94 374.22Q933.47 374.22 934.61 373.47Q935.75 372.72 936.38 371.34Q937.01 369.96 937.01 368.08Q937.01 366.17 936.38 364.8Q935.75 363.43 934.61 362.68Q933.47 361.94 931.94 361.94Q930.41 361.94 929.27 362.68Q928.12 363.43 927.49 364.81Q926.86 366.19 926.86 368.08Q926.86 369.96 927.49 371.34Q928.12 372.72 929.27 373.47Q930.41 374.22 931.94 374.22ZM813.74 367.8Q814.32 367.59 814.75 367.2Q815.17 366.82 815.4 366.3Q815.63 365.78 815.63 365.15Q815.63 363.81 814.55 362.98Q813.48 362.15 811.54 362.15H807.01V374.01H811.72Q812.99 374.01 813.94 373.6Q814.88 373.18 815.4 372.42Q815.91 371.66 815.91 370.64Q815.91 369.89 815.64 369.32Q815.36 368.76 814.88 368.38Q814.4 368 813.74 367.8ZM939.78 374.01H941.92V369.22H943.26Q943.59 369.43 943.89 369.65Q944.7 370.25 945.24 370.97Q945.79 371.68 946.1 372.45Q946.41 373.23 946.48 374.01H948.66Q948.61 373.19 948.35 372.37Q948.08 371.55 947.56 370.78Q947.04 370 946.26 369.32Q946.06 369.15 945.84 368.98Q945.93 368.95 946.02 368.92Q946.87 368.62 947.47 368.1Q948.06 367.59 948.38 366.94Q948.7 366.29 948.7 365.61Q948.7 364.51 948.16 363.74Q947.62 362.97 946.68 362.56Q945.73 362.15 944.52 362.15H939.78ZM650.1 374.01H652.24V369.22H653.58Q653.91 369.43 654.21 369.65Q655.02 370.25 655.56 370.97Q656.11 371.68 656.42 372.45Q656.73 373.23 656.8 374.01H658.98Q658.93 373.19 658.67 372.37Q658.4 371.55 657.88 370.78Q657.36 370 656.58 369.32Q656.38 369.15 656.16 368.98Q656.25 368.95 656.34 368.92Q657.19 368.62 657.79 368.1Q658.38 367.59 658.7 366.94Q659.02 366.29 659.02 365.61Q659.02 364.51 658.48 363.74Q657.94 362.97 657 362.56Q656.05 362.15 654.84 362.15H650.1ZM263.86 374.01H266V369.22H267.34Q267.67 369.43 267.97 369.65Q268.78 370.25 269.32 370.97Q269.87 371.68 270.18 372.45Q270.49 373.23 270.56 374.01H272.74Q272.69 373.19 272.43 372.37Q272.16 371.55 271.64 370.78Q271.12 370 270.34 369.32Q270.14 369.15 269.92 368.98Q270.01 368.95 270.1 368.92Q270.95 368.62 271.55 368.1Q272.14 367.59 272.46 366.94Q272.78 366.29 272.78 365.61Q272.78 364.51 272.24 363.74Q271.7 362.97 270.76 362.56Q269.81 362.15 268.6 362.15H263.86ZM324.21 374.01H326.35V369.22H327.69Q328.02 369.43 328.32 369.65Q329.13 370.25 329.67 370.97Q330.22 371.68 330.53 372.45Q330.84 373.23 330.91 374.01H333.09Q333.04 373.19 332.78 372.37Q332.51 371.55 331.99 370.78Q331.47 370 330.69 369.32Q330.49 369.15 330.27 368.98Q330.36 368.95 330.45 368.92Q331.3 368.62 331.9 368.1Q332.49 367.59 332.81 366.94Q333.13 366.29 333.13 365.61Q333.13 364.51 332.59 363.74Q332.05 362.97 331.11 362.56Q330.16 362.15 328.95 362.15H324.21ZM589.75 374.01H591.89V369.22H593.23Q593.56 369.43 593.86 369.65Q594.67 370.25 595.21 370.97Q595.76 371.68 596.07 372.45Q596.38 373.23 596.45 374.01H598.63Q598.58 373.19 598.32 372.37Q598.05 371.55 597.53 370.78Q597.01 370 596.23 369.32Q596.03 369.15 595.81 368.98Q595.9 368.95 595.99 368.92Q596.84 368.62 597.44 368.1Q598.03 367.59 598.35 366.94Q598.67 366.29 598.67 365.61Q598.67 364.51 598.13 363.74Q597.59 362.97 596.65 362.56Q595.7 362.15 594.49 362.15H589.75ZM299.13 374.01H301.23L301.48 367.09L301.55 364.24L302.06 367.09L303.4 374.01H305.14L306.49 367.09L307.02 364.25L307.07 367.09L307.35 374.01H309.45L308.59 362.15H305.85L304.69 368.47L304.34 371.05L303.98 368.47L302.76 362.15H300ZM492.25 374.01H494.35L494.6 367.09L494.67 364.24L495.18 367.09L496.52 374.01H498.26L499.62 367.09L500.14 364.25L500.19 367.09L500.47 374.01H502.57L501.71 362.15H498.97L497.81 368.47L497.46 371.05L497.1 368.47L495.88 362.15H493.12ZM360.54 374.01H363.36L364.3 368.15L364.67 365.21L365.03 368.15L365.93 374.01H368.75L369.92 362.15H367.93L367.37 369.23L367.27 372.24L366.81 369.23L365.6 362.15H363.72L362.56 369.23L362.15 372.16L362 369.23L361.4 362.15H359.4ZM915.76 374.01H918.58L919.52 368.15L919.89 365.21L920.25 368.15L921.15 374.01H923.97L925.14 362.15H923.15L922.59 369.23L922.49 372.24L922.03 369.23L920.82 362.15H918.94L917.78 369.23L917.37 372.16L917.22 369.23L916.62 362.15H914.62ZM614.01 374.01H616.83L617.77 368.15L618.14 365.21L618.5 368.15L619.4 374.01H622.22L623.39 362.15H621.4L620.84 369.23L620.74 372.24L620.28 369.23L619.07 362.15H617.19L616.03 369.23L615.62 372.16L615.47 369.23L614.88 362.15H612.87ZM855.03 374.01H857.06V368.74L856.89 364.98L861.32 374.01H864V362.15H861.96V367.41L862.12 371.29L857.71 362.15H855.03ZM517.07 374.01H519.1V368.74L518.93 364.98L523.36 374.01H526.04V362.15H524V367.41L524.16 371.29L519.75 362.15H517.07ZM770.54 374.01H772.57V368.74L772.4 364.98L776.83 374.01H779.51V362.15H777.47V367.41L777.63 371.29L773.22 362.15H770.54ZM975.73 374.01H977.76V368.74L977.59 364.98L982.02 374.01H984.7V362.15H982.66V367.41L982.82 371.29L978.41 362.15H975.73ZM206.16 362.15 202.72 374.01H204.85L205.64 371.26H209.77L210.55 374.01H212.73L209.28 362.15ZM483.77 362.15 480.33 374.01H482.46L483.25 371.26H487.38L488.16 374.01H490.34L486.89 362.15ZM580.33 362.15 576.89 374.01H579.02L579.81 371.26H583.94L584.72 374.01H586.9L583.45 362.15ZM737.24 362.15 733.8 374.01H735.93L736.72 371.26H740.85L741.63 374.01H743.81L740.36 362.15ZM290.65 362.15 287.21 374.01H289.34L290.13 371.26H294.26L295.04 374.01H297.22L293.77 362.15ZM557.91 374.22Q559.5 374.22 560.69 373.64Q561.88 373.07 562.61 372.06V367.7H558.66L558.59 369.51L560.5 369.43V371.45Q560.07 371.89 559.47 372.16Q558.88 372.43 558.09 372.43Q557.18 372.43 556.46 371.93Q555.74 371.42 555.33 370.45Q554.92 369.48 554.92 368.08Q554.92 366.7 555.32 365.74Q555.72 364.77 556.41 364.25Q557.1 363.73 557.97 363.73Q558.94 363.73 559.54 364.36Q560.14 365 560.25 366.02H562.61Q562.52 364.73 561.88 363.82Q561.24 362.9 560.24 362.42Q559.24 361.94 558.02 361.94Q556.4 361.94 555.2 362.71Q554 363.48 553.35 364.87Q552.69 366.25 552.69 368.08Q552.69 369.93 553.34 371.3Q553.99 372.68 555.17 373.45Q556.34 374.22 557.91 374.22ZM473.42 374.22Q475.01 374.22 476.2 373.64Q477.39 373.07 478.12 372.06V367.7H474.17L474.1 369.51L476.01 369.43V371.45Q475.58 371.89 474.98 372.16Q474.39 372.43 473.61 372.43Q472.69 372.43 471.97 371.93Q471.25 371.42 470.84 370.45Q470.43 369.48 470.43 368.08Q470.43 366.7 470.83 365.74Q471.23 364.77 471.92 364.25Q472.61 363.73 473.48 363.73Q474.45 363.73 475.05 364.36Q475.65 365 475.76 366.02H478.12Q478.03 364.73 477.39 363.82Q476.75 362.9 475.75 362.42Q474.75 361.94 473.53 361.94Q471.91 361.94 470.71 362.71Q469.51 363.48 468.86 364.87Q468.2 366.25 468.2 368.08Q468.2 369.93 468.85 371.3Q469.5 372.68 470.68 373.45Q471.85 374.22 473.42 374.22ZM533.77 374.22Q535.36 374.22 536.55 373.64Q537.74 373.07 538.47 372.06V367.7H534.52L534.45 369.51L536.36 369.43V371.45Q535.93 371.89 535.33 372.16Q534.74 372.43 533.96 372.43Q533.04 372.43 532.32 371.93Q531.6 371.42 531.19 370.45Q530.78 369.48 530.78 368.08Q530.78 366.7 531.18 365.74Q531.58 364.77 532.27 364.25Q532.96 363.73 533.83 363.73Q534.8 363.73 535.4 364.36Q536 365 536.11 366.02H538.47Q538.38 364.73 537.74 363.82Q537.1 362.9 536.1 362.42Q535.1 361.94 533.88 361.94Q532.26 361.94 531.06 362.71Q529.86 363.48 529.21 364.87Q528.55 366.25 528.55 368.08Q528.55 369.93 529.2 371.3Q529.85 372.68 531.03 373.45Q532.2 374.22 533.77 374.22ZM992.43 374.22Q994.02 374.22 995.21 373.64Q996.4 373.07 997.13 372.06V367.7H993.18L993.11 369.51L995.02 369.43V371.45Q994.59 371.89 993.99 372.16Q993.4 372.43 992.61 372.43Q991.7 372.43 990.98 371.93Q990.26 371.42 989.85 370.45Q989.44 369.48 989.44 368.08Q989.44 366.7 989.84 365.74Q990.24 364.77 990.93 364.25Q991.62 363.73 992.49 363.73Q993.46 363.73 994.06 364.36Q994.66 365 994.77 366.02H997.13Q997.04 364.73 996.4 363.82Q995.76 362.9 994.76 362.42Q993.76 361.94 992.54 361.94Q990.92 361.94 989.72 362.71Q988.52 363.48 987.87 364.87Q987.21 366.25 987.21 368.08Q987.21 369.93 987.86 371.3Q988.51 372.68 989.69 373.45Q990.86 374.22 992.43 374.22ZM729.15 374.01H731.29V362.15H729.15V366.98H724.33V362.15H722.2V374.01H724.33V368.76H729.15ZM379.12 374.01H381.26V362.15H379.12V366.98H374.3V362.15H372.17V374.01H374.3V368.76H379.12ZM632.59 374.01H634.73V362.15H632.59V366.98H627.77V362.15H625.64V374.01H627.77V368.76H632.59ZM895.85 374.22Q897.1 374.22 898.09 373.78Q899.08 373.35 899.65 372.56Q900.22 371.78 900.22 370.73Q900.22 369.73 899.87 369.08Q899.51 368.43 898.93 368.04Q898.34 367.64 897.64 367.41Q896.95 367.18 896.25 367.01Q895.56 366.84 894.97 366.65Q894.38 366.45 894.03 366.14Q893.67 365.83 893.67 365.3Q893.67 364.56 894.24 364.14Q894.81 363.73 895.69 363.73Q896.3 363.73 896.81 363.96Q897.32 364.2 897.64 364.65Q897.96 365.1 897.98 365.75H900.12Q900.1 364.54 899.49 363.7Q898.89 362.85 897.89 362.4Q896.9 361.94 895.69 361.94Q894.41 361.94 893.46 362.39Q892.51 362.84 891.98 363.61Q891.45 364.38 891.45 365.36Q891.45 366.3 891.81 366.9Q892.16 367.51 892.75 367.88Q893.34 368.25 894.03 368.48Q894.73 368.71 895.42 368.89Q896.12 369.07 896.7 369.29Q897.29 369.5 897.64 369.84Q898 370.17 898 370.74Q898 371.55 897.41 371.99Q896.81 372.43 895.84 372.43Q894.66 372.43 894.02 371.74Q893.38 371.05 893.38 369.76H891.27Q891.27 371.16 891.83 372.15Q892.38 373.15 893.41 373.68Q894.44 374.22 895.85 374.22ZM883.78 374.22Q885.03 374.22 886.02 373.78Q887.01 373.35 887.58 372.56Q888.15 371.78 888.15 370.73Q888.15 369.73 887.8 369.08Q887.44 368.43 886.86 368.04Q886.27 367.64 885.57 367.41Q884.88 367.18 884.18 367.01Q883.49 366.84 882.9 366.65Q882.31 366.45 881.96 366.14Q881.61 365.83 881.61 365.3Q881.61 364.56 882.17 364.14Q882.74 363.73 883.62 363.73Q884.23 363.73 884.74 363.96Q885.25 364.2 885.57 364.65Q885.89 365.1 885.91 365.75H888.05Q888.03 364.54 887.42 363.7Q886.82 362.85 885.82 362.4Q884.83 361.94 883.62 361.94Q882.34 361.94 881.39 362.39Q880.44 362.84 879.91 363.61Q879.38 364.38 879.38 365.36Q879.38 366.3 879.74 366.9Q880.09 367.51 880.68 367.88Q881.27 368.25 881.96 368.48Q882.66 368.71 883.35 368.89Q884.05 369.07 884.63 369.29Q885.22 369.5 885.57 369.84Q885.93 370.17 885.93 370.74Q885.93 371.55 885.34 371.99Q884.74 372.43 883.77 372.43Q882.59 372.43 881.95 371.74Q881.31 371.05 881.31 369.76H879.2Q879.2 371.16 879.76 372.15Q880.31 373.15 881.34 373.68Q882.37 374.22 883.78 374.22ZM340.63 374.22Q341.88 374.22 342.87 373.78Q343.86 373.35 344.43 372.56Q345 371.78 345 370.73Q345 369.73 344.65 369.08Q344.29 368.43 343.71 368.04Q343.12 367.64 342.42 367.41Q341.73 367.18 341.03 367.01Q340.34 366.84 339.75 366.65Q339.16 366.45 338.81 366.14Q338.46 365.83 338.46 365.3Q338.46 364.56 339.02 364.14Q339.59 363.73 340.47 363.73Q341.08 363.73 341.59 363.96Q342.1 364.2 342.42 364.65Q342.74 365.1 342.76 365.75H344.9Q344.88 364.54 344.27 363.7Q343.67 362.85 342.67 362.4Q341.68 361.94 340.47 361.94Q339.19 361.94 338.24 362.39Q337.29 362.84 336.76 363.61Q336.23 364.38 336.23 365.36Q336.23 366.3 336.59 366.9Q336.94 367.51 337.53 367.88Q338.11 368.25 338.81 368.48Q339.51 368.71 340.2 368.89Q340.9 369.07 341.48 369.29Q342.07 369.5 342.42 369.84Q342.78 370.17 342.78 370.74Q342.78 371.55 342.19 371.99Q341.59 372.43 340.62 372.43Q339.44 372.43 338.8 371.74Q338.16 371.05 338.16 369.76H336.05Q336.05 371.16 336.61 372.15Q337.16 373.15 338.19 373.68Q339.22 374.22 340.63 374.22ZM244.07 374.22Q245.32 374.22 246.31 373.78Q247.3 373.35 247.87 372.56Q248.44 371.78 248.44 370.73Q248.44 369.73 248.09 369.08Q247.73 368.43 247.15 368.04Q246.56 367.64 245.86 367.41Q245.17 367.18 244.47 367.01Q243.78 366.84 243.19 366.65Q242.6 366.45 242.25 366.14Q241.9 365.83 241.9 365.3Q241.9 364.56 242.46 364.14Q243.03 363.73 243.91 363.73Q244.52 363.73 245.03 363.96Q245.54 364.2 245.86 364.65Q246.18 365.1 246.2 365.75H248.34Q248.32 364.54 247.71 363.7Q247.11 362.85 246.11 362.4Q245.12 361.94 243.91 361.94Q242.63 361.94 241.68 362.39Q240.73 362.84 240.2 363.61Q239.67 364.38 239.67 365.36Q239.67 366.3 240.03 366.9Q240.38 367.51 240.97 367.88Q241.55 368.25 242.25 368.48Q242.95 368.71 243.64 368.89Q244.34 369.07 244.92 369.29Q245.51 369.5 245.86 369.84Q246.22 370.17 246.22 370.74Q246.22 371.55 245.63 371.99Q245.03 372.43 244.06 372.43Q242.88 372.43 242.24 371.74Q241.6 371.05 241.6 369.76H239.49Q239.49 371.16 240.05 372.15Q240.6 373.15 241.63 373.68Q242.66 374.22 244.07 374.22ZM437.19 374.22Q438.44 374.22 439.43 373.78Q440.42 373.35 440.99 372.56Q441.56 371.78 441.56 370.73Q441.56 369.73 441.21 369.08Q440.85 368.43 440.27 368.04Q439.68 367.64 438.98 367.41Q438.29 367.18 437.59 367.01Q436.9 366.84 436.31 366.65Q435.72 366.45 435.37 366.14Q435.02 365.83 435.02 365.3Q435.02 364.56 435.58 364.14Q436.15 363.73 437.03 363.73Q437.64 363.73 438.15 363.96Q438.66 364.2 438.98 364.65Q439.3 365.1 439.32 365.75H441.46Q441.44 364.54 440.83 363.7Q440.23 362.85 439.23 362.4Q438.24 361.94 437.03 361.94Q435.75 361.94 434.8 362.39Q433.85 362.84 433.32 363.61Q432.79 364.38 432.79 365.36Q432.79 366.3 433.15 366.9Q433.5 367.51 434.09 367.88Q434.68 368.25 435.37 368.48Q436.07 368.71 436.76 368.89Q437.46 369.07 438.04 369.29Q438.63 369.5 438.98 369.84Q439.34 370.17 439.34 370.74Q439.34 371.55 438.75 371.99Q438.15 372.43 437.18 372.43Q436 372.43 435.36 371.74Q434.72 371.05 434.72 369.76H432.61Q432.61 371.16 433.17 372.15Q433.72 373.15 434.75 373.68Q435.78 374.22 437.19 374.22ZM835.5 374.22Q836.75 374.22 837.74 373.78Q838.73 373.35 839.3 372.56Q839.87 371.78 839.87 370.73Q839.87 369.73 839.52 369.08Q839.16 368.43 838.58 368.04Q837.99 367.64 837.29 367.41Q836.6 367.18 835.9 367.01Q835.21 366.84 834.62 366.65Q834.03 366.45 833.68 366.14Q833.33 365.83 833.33 365.3Q833.33 364.56 833.89 364.14Q834.46 363.73 835.34 363.73Q835.95 363.73 836.46 363.96Q836.97 364.2 837.29 364.65Q837.61 365.1 837.63 365.75H839.77Q839.75 364.54 839.14 363.7Q838.54 362.85 837.54 362.4Q836.55 361.94 835.34 361.94Q834.06 361.94 833.11 362.39Q832.16 362.84 831.63 363.61Q831.1 364.38 831.1 365.36Q831.1 366.3 831.46 366.9Q831.81 367.51 832.4 367.88Q832.98 368.25 833.68 368.48Q834.38 368.71 835.07 368.89Q835.77 369.07 836.35 369.29Q836.94 369.5 837.29 369.84Q837.65 370.17 837.65 370.74Q837.65 371.55 837.06 371.99Q836.46 372.43 835.49 372.43Q834.31 372.43 833.67 371.74Q833.03 371.05 833.03 369.76H830.92Q830.92 371.16 831.48 372.15Q832.03 373.15 833.06 373.68Q834.09 374.22 835.5 374.22ZM751.01 374.22Q752.26 374.22 753.25 373.78Q754.24 373.35 754.81 372.56Q755.38 371.78 755.38 370.73Q755.38 369.73 755.03 369.08Q754.67 368.43 754.09 368.04Q753.5 367.64 752.8 367.41Q752.11 367.18 751.41 367.01Q750.72 366.84 750.13 366.65Q749.54 366.45 749.19 366.14Q748.84 365.83 748.84 365.3Q748.84 364.56 749.4 364.14Q749.97 363.73 750.85 363.73Q751.46 363.73 751.97 363.96Q752.48 364.2 752.8 364.65Q753.12 365.1 753.14 365.75H755.28Q755.26 364.54 754.65 363.7Q754.05 362.85 753.05 362.4Q752.06 361.94 750.85 361.94Q749.57 361.94 748.62 362.39Q747.67 362.84 747.14 363.61Q746.61 364.38 746.61 365.36Q746.61 366.3 746.97 366.9Q747.32 367.51 747.91 367.88Q748.49 368.25 749.19 368.48Q749.89 368.71 750.58 368.89Q751.28 369.07 751.86 369.29Q752.45 369.5 752.8 369.84Q753.16 370.17 753.16 370.74Q753.16 371.55 752.57 371.99Q751.97 372.43 751 372.43Q749.82 372.43 749.18 371.74Q748.54 371.05 748.54 369.76H746.43Q746.43 371.16 746.99 372.15Q747.54 373.15 748.57 373.68Q749.6 374.22 751.01 374.22ZM951.71 374.01H953.84V369.99L955.21 368.46L958.67 374.01H961.2L956.66 366.82L960.81 362.15H958.22L955.4 365.25L953.67 367.27L953.84 365.02V362.15H951.71ZM638.07 374.01H646.75V372.23H640.21V368.76H644.58V366.98H640.21V363.93H646.68V362.15H638.07ZM275.97 374.01H284.65V372.23H278.11V368.76H282.48V366.98H278.11V363.93H284.58V362.15H275.97ZM420.81 374.01H429.49V372.23H422.95V368.76H427.32V366.98H422.95V363.93H429.42V362.15H420.81ZM312.18 374.01H320.86V372.23H314.32V368.76H318.69V366.98H314.32V363.93H320.79V362.15H312.18ZM565.65 374.01H574.33V372.23H567.79V368.76H572.16V366.98H567.79V363.93H574.26V362.15H565.65ZM662.21 374.01H670.89V372.23H664.35V368.76H668.72V366.98H664.35V363.93H670.82V362.15H662.21ZM867.4 374.01H876.08V372.23H869.54V368.76H873.91V366.98H869.54V363.93H876.01V362.15H867.4ZM823.3 374.22Q824.75 374.22 825.8 373.66Q826.85 373.11 827.42 372.11Q828 371.12 828 369.79V362.15H825.85V369.79Q825.85 370.59 825.53 371.18Q825.22 371.76 824.65 372.09Q824.08 372.42 823.3 372.42Q822.53 372.42 821.95 372.09Q821.38 371.76 821.06 371.18Q820.74 370.59 820.74 369.79V362.15H818.6V369.79Q818.6 371.12 819.17 372.11Q819.75 373.11 820.8 373.66Q821.86 374.22 823.3 374.22ZM843.47 362.15V363.93H846.36V372.23H843.47V374.01H851.38V372.23H848.49V363.93H851.38V362.15ZM964.17 362.15V363.93H967.06V372.23H964.17V374.01H972.08V372.23H969.19V363.93H972.08V362.15ZM686.56 362.15V363.93H689.45V372.23H686.56V374.01H694.47V372.23H691.58V363.93H694.47V362.15ZM215.83 362.15V363.93H218.72V372.23H215.83V374.01H223.74V372.23H220.85V363.93H223.74V362.15ZM505.51 362.15V363.93H508.4V372.23H505.51V374.01H513.42V372.23H510.53V363.93H513.42V362.15ZM931.94 372.43Q931.1 372.43 930.45 371.91Q929.81 371.38 929.44 370.4Q929.08 369.43 929.08 368.08Q929.08 366.73 929.44 365.75Q929.81 364.78 930.45 364.25Q931.1 363.73 931.94 363.73Q932.78 363.73 933.42 364.25Q934.07 364.77 934.43 365.74Q934.79 366.72 934.79 368.08Q934.79 369.43 934.43 370.4Q934.07 371.38 933.42 371.91Q932.78 372.43 931.94 372.43ZM388.79 372.43Q387.95 372.43 387.3 371.91Q386.66 371.38 386.29 370.4Q385.93 369.43 385.93 368.08Q385.93 366.73 386.29 365.75Q386.66 364.78 387.3 364.25Q387.95 363.73 388.79 363.73Q389.63 363.73 390.27 364.25Q390.92 364.77 391.28 365.74Q391.64 366.72 391.64 368.08Q391.64 369.43 391.28 370.4Q390.92 371.38 390.27 371.91Q389.63 372.43 388.79 372.43ZM787.1 372.43Q786.26 372.43 785.61 371.91Q784.97 371.38 784.6 370.4Q784.24 369.43 784.24 368.08Q784.24 366.73 784.6 365.75Q784.97 364.78 785.61 364.25Q786.26 363.73 787.1 363.73Q787.94 363.73 788.58 364.25Q789.23 364.77 789.59 365.74Q789.95 366.72 789.95 368.08Q789.95 369.43 789.59 370.4Q789.23 371.38 788.58 371.91Q787.94 372.43 787.1 372.43ZM701.52 374.01H703.65V363.93H707.36V362.15H697.81V363.93H701.52ZM411.84 374.01H413.97V363.93H417.68V362.15H408.13V363.93H411.84ZM448.05 374.01H450.18V363.93H453.89V362.15H444.34V363.93H448.05ZM254.93 374.01H257.06V363.93H260.77V362.15H251.22V363.93H254.93ZM591.89 363.93H594.49Q595.05 363.93 595.49 364.14Q595.93 364.34 596.19 364.72Q596.45 365.09 596.45 365.61Q596.45 366.15 596.16 366.57Q595.87 366.99 595.36 367.22Q594.85 367.44 594.18 367.44H591.89V363.93ZM266 363.93H268.6Q269.16 363.93 269.6 364.14Q270.04 364.34 270.3 364.72Q270.56 365.09 270.56 365.61Q270.56 366.15 270.27 366.57Q269.98 366.99 269.47 367.22Q268.96 367.44 268.29 367.44H266V363.93ZM326.35 363.93H328.95Q329.51 363.93 329.95 364.14Q330.39 364.34 330.65 364.72Q330.91 365.09 330.91 365.61Q330.91 366.15 330.62 366.57Q330.33 366.99 329.82 367.22Q329.31 367.44 328.64 367.44H326.35V363.93ZM652.24 363.93H654.84Q655.4 363.93 655.84 364.14Q656.28 364.34 656.54 364.72Q656.8 365.09 656.8 365.61Q656.8 366.15 656.51 366.57Q656.22 366.99 655.71 367.22Q655.2 367.44 654.53 367.44H652.24V363.93ZM941.92 363.93H944.52Q945.08 363.93 945.52 364.14Q945.96 364.34 946.22 364.72Q946.48 365.09 946.48 365.61Q946.48 366.15 946.19 366.57Q945.9 366.99 945.39 367.22Q944.88 367.44 944.21 367.44H941.92V363.93ZM809.15 372.23V368.87H811.55Q812.55 368.87 813.12 369.31Q813.69 369.76 813.69 370.55Q813.69 371.32 813.14 371.77Q812.59 372.23 811.66 372.23ZM811.43 363.93Q812.32 363.93 812.86 364.34Q813.41 364.75 813.41 365.47Q813.41 366.19 812.87 366.64Q812.34 367.08 811.43 367.08H809.15V363.93ZM486.87 369.48H483.76L484.6 366.54L485.33 363.75L486.04 366.53L486.87 369.48ZM583.43 369.48H580.32L581.16 366.54L581.89 363.75L582.6 366.53L583.43 369.48ZM293.75 369.48H290.64L291.48 366.54L292.21 363.75L292.92 366.53L293.75 369.48ZM209.26 369.48H206.15L206.99 366.54L207.72 363.75L208.43 366.53L209.26 369.48ZM740.34 369.48H737.23L738.07 366.54L738.8 363.75L739.51 366.53L740.34 369.48Z"/><path fill="#ECE8DC" d="M174.55 564.41Q173.32 564.41 172.36 565.05Q171.41 565.68 170.87 566.79Q170.33 567.9 170.33 569.31Q170.33 570.7 170.87 571.81Q171.41 572.92 172.36 573.56Q173.32 574.2 174.55 574.2Q175.49 574.2 176.27 573.82Q177.04 573.44 177.53 572.82L177.58 574H179.51V561.48H177.49V565.74Q177 565.13 176.23 564.77Q175.46 564.41 174.55 564.41ZM93.62 564.41Q92.71 564.41 91.94 564.77Q91.18 565.13 90.68 565.74V561.48H88.66V574H90.59L90.64 572.82Q91.14 573.44 91.91 573.82Q92.69 574.2 93.62 574.2Q94.87 574.2 95.81 573.56Q96.76 572.92 97.3 571.81Q97.84 570.7 97.84 569.31Q97.84 567.9 97.3 566.79Q96.76 565.68 95.81 565.05Q94.87 564.41 93.62 564.41ZM105.35 564.41Q104.44 564.41 103.67 564.77Q102.91 565.13 102.41 565.74V561.48H100.39V574H102.32L102.37 572.82Q102.87 573.44 103.64 573.82Q104.42 574.2 105.35 574.2Q106.6 574.2 107.54 573.56Q108.49 572.92 109.03 571.81Q109.57 570.7 109.57 569.31Q109.57 567.9 109.03 566.79Q108.49 565.68 107.54 565.05Q106.6 564.41 105.35 564.41ZM198.55 574.2Q200.02 574.2 201.08 573.61Q202.14 573.02 202.71 571.92Q203.28 570.82 203.28 569.31Q203.28 567.02 202.02 565.72Q200.76 564.41 198.55 564.41Q197.08 564.41 196.01 565Q194.95 565.6 194.38 566.69Q193.82 567.78 193.82 569.31Q193.82 570.82 194.38 571.92Q194.95 573.02 196.01 573.61Q197.08 574.2 198.55 574.2ZM118.69 574H120.63V567.91Q120.63 566.8 120.11 566.02Q119.6 565.23 118.66 564.82Q117.71 564.41 116.43 564.41Q115.18 564.41 114.21 564.79Q113.25 565.18 112.68 565.89Q112.1 566.6 112.03 567.6H114Q114.08 566.8 114.71 566.35Q115.35 565.9 116.36 565.9Q117.41 565.9 118.01 566.41Q118.61 566.92 118.61 567.8V568.38H116.55Q114.55 568.38 113.43 569.18Q112.31 569.99 112.31 571.44Q112.31 572.27 112.7 572.89Q113.09 573.52 113.8 573.86Q114.5 574.2 115.43 574.2Q116.72 574.2 117.62 573.68Q118.24 573.32 118.64 572.72ZM65.79 574H68.15L69.22 569.09L69.54 566.52L69.85 569.09L70.94 574H73.3L74.74 564.58H72.94L72.23 569.72L71.96 571.93L71.55 569.72L70.46 564.58H68.64L67.6 569.72L67.21 571.89L66.92 569.72L66.21 564.58H64.32ZM78.85 564.62H76.82V570.59Q76.82 571.68 77.24 572.49Q77.66 573.3 78.44 573.75Q79.21 574.2 80.28 574.2Q81.38 574.2 82.35 573.6Q82.95 573.23 83.39 572.61L83.45 574H85.4V564.62H83.37V570.24Q82.91 571.3 82.31 571.83Q81.57 572.49 80.65 572.49Q79.84 572.49 79.35 571.94Q78.85 571.39 78.85 570.49ZM160.96 564.62H158.93V570.59Q158.93 571.68 159.35 572.49Q159.77 573.3 160.55 573.75Q161.32 574.2 162.39 574.2Q163.49 574.2 164.46 573.6Q165.06 573.23 165.5 572.61L165.56 574H167.51V564.62H165.48V570.24Q165.02 571.3 164.42 571.83Q163.68 572.49 162.76 572.49Q161.95 572.49 161.46 571.94Q160.96 571.39 160.96 570.49ZM140.15 574.2Q141.96 574.2 143.04 573.43Q144.12 572.66 144.12 571.31Q144.12 570.5 143.79 569.99Q143.46 569.48 142.93 569.18Q142.39 568.88 141.76 568.71Q141.12 568.54 140.47 568.43Q139.83 568.32 139.29 568.18Q138.76 568.04 138.43 567.81Q138.1 567.57 138.1 567.14Q138.1 566.6 138.57 566.26Q139.04 565.93 139.91 565.93Q140.86 565.93 141.43 566.34Q142 566.74 142.05 567.5H143.94Q143.84 566.06 142.76 565.23Q141.68 564.41 139.9 564.41Q138.74 564.41 137.87 564.77Q137 565.13 136.53 565.77Q136.06 566.4 136.06 567.24Q136.06 568 136.39 568.5Q136.71 568.99 137.25 569.28Q137.78 569.57 138.42 569.75Q139.07 569.93 139.71 570.06Q140.35 570.19 140.88 570.35Q141.41 570.5 141.74 570.77Q142.07 571.04 142.07 571.49Q142.07 572.04 141.54 572.37Q141.01 572.69 140.14 572.69Q139.06 572.69 138.42 572.14Q137.78 571.6 137.79 570.65H135.89Q135.9 571.74 136.43 572.54Q136.96 573.34 137.92 573.77Q138.88 574.2 140.15 574.2ZM152.4 574H155.83V572.36H153.17Q152.51 572.36 152.16 572.19Q151.8 572.02 151.68 571.7Q151.56 571.39 151.56 570.96V566.26H154.28V564.62H151.56V561.89L149.53 562.91V564.62H147.44V566.26H149.53V570.96Q149.53 571.87 149.87 572.56Q150.21 573.25 150.85 573.62Q151.5 574 152.4 574ZM182.55 574H191.07V572.36H187.9V564.62H183.77V566.26H185.87V572.36H182.55ZM198.55 572.54Q197.29 572.54 196.57 571.67Q195.85 570.8 195.85 569.31Q195.85 567.8 196.57 566.94Q197.29 566.08 198.55 566.08Q199.8 566.08 200.52 566.94Q201.24 567.79 201.24 569.3Q201.24 570.8 200.52 571.67Q199.8 572.54 198.55 572.54ZM175.03 572.52Q174.24 572.52 173.64 572.1Q173.04 571.68 172.7 570.95Q172.36 570.23 172.36 569.31Q172.36 568.37 172.7 567.64Q173.04 566.92 173.64 566.51Q174.24 566.1 175.03 566.1Q175.87 566.1 176.53 566.58Q177.19 567.06 177.49 567.91V570.69Q177.19 571.52 176.53 572.02Q175.87 572.52 175.03 572.52ZM93.14 572.52Q92.31 572.52 91.64 572.02Q90.98 571.52 90.68 570.69V567.91Q90.98 567.06 91.64 566.58Q92.31 566.1 93.14 566.1Q93.94 566.1 94.54 566.51Q95.13 566.92 95.47 567.64Q95.81 568.37 95.81 569.31Q95.81 570.23 95.47 570.95Q95.13 571.68 94.54 572.1Q93.94 572.52 93.14 572.52ZM104.87 572.52Q104.04 572.52 103.37 572.02Q102.71 571.52 102.41 570.69V567.91Q102.71 567.06 103.37 566.58Q104.04 566.1 104.87 566.1Q105.67 566.1 106.27 566.51Q106.86 566.92 107.2 567.64Q107.54 568.37 107.54 569.31Q107.54 570.23 107.2 570.95Q106.86 571.68 106.27 572.1Q105.67 572.52 104.87 572.52ZM118.61 569.84V570.92Q118.18 571.63 117.54 572.07Q116.81 572.57 115.86 572.57Q115.14 572.57 114.72 572.23Q114.3 571.89 114.3 571.33Q114.3 570.61 114.88 570.23Q115.46 569.85 116.48 569.85L118.61 569.84ZM126.96 574H129.39V571.62H126.96ZM185.75 563.13H187.98V561.07H185.75Z"/></svg>
